<svg width="29" height="28" viewBox="0 0 29 28" fill="none" xmlns="http://www.w3.org/2000/svg">
<path fill-rule="evenodd" clip-rule="evenodd" d="M16.373 11.9746L9.7652 18.6265L2.02908 13.865C1.01539 13.241 1.22085 11.7015 2.36282 11.37L20.6276 6.05534C21.6662 5.75475 22.6266 6.72853 22.3155 7.77204L16.8963 26.0179C16.5569 27.1597 15.0346 27.3575 14.4194 26.338L9.7652 18.6265" fill="#787D81" fill-opacity="0.4"/>
<path fill-rule="evenodd" clip-rule="evenodd" d="M21.373 6.97463L14.7652 13.6265L7.02908 8.86505C6.01539 8.241 6.22085 6.70146 7.36282 6.37001L25.6276 1.05534C26.6662 0.754746 27.6266 1.72853 27.3155 2.77204L21.8963 21.0179C21.5569 22.1597 20.0346 22.3575 19.4194 21.338L14.7652 13.6265" fill="#787D81"/>
</svg>
