<svg width="29" height="28" viewBox="0 0 29 28" fill="none" xmlns="http://www.w3.org/2000/svg">
<path d="M22.685 11.557L16.2942 11.057L11.5 17L9.90329 26.9725C9.90334 27.1862 9.97241 27.3945 10.1009 27.5685C10.2294 27.7426 10.4109 27.8736 10.6201 27.9435C10.8294 28.0134 11.056 28.0186 11.2685 27.9584C11.481 27.8982 11.6687 27.7756 11.8056 27.6076L23.5222 13.2199C23.6458 13.0683 23.7226 12.8862 23.7439 12.6945C23.7653 12.5028 23.7303 12.3091 23.6429 12.1357C23.5556 11.9622 23.4195 11.816 23.2501 11.7137C23.0807 11.6113 22.8849 11.5571 22.685 11.557Z" fill="#42ADF5" fill-opacity="0.4"/>
<path d="M11.5 17L16.2942 11.057L17.5967 1.02747C17.5967 0.813809 17.5276 0.605476 17.3991 0.431452C17.2706 0.257428 17.0891 0.126366 16.8799 0.0564986C16.6706 -0.0133684 16.444 -0.0185661 16.2315 0.0416272C16.019 0.101821 15.8313 0.224414 15.6944 0.392351L3.97775 14.7801C3.85425 14.9317 3.77743 15.1138 3.75609 15.3055C3.73475 15.4972 3.76974 15.6909 3.85707 15.8643C3.94439 16.0378 4.08053 16.184 4.24991 16.2863C4.4193 16.3887 4.61511 16.4429 4.81496 16.443L11.5 17Z" fill="#42ADF5"/>
</svg>
