<svg width="31" height="28" viewBox="0 0 31 28" fill="none" xmlns="http://www.w3.org/2000/svg">
<path d="M16.1748 1.50556L6.31599 4.14722C2.72329 5.10988 1.23312 7.69066 2.19569 11.283L4.83459 21.1315C5.79715 24.7239 8.37808 26.2138 11.9708 25.2512L21.8296 22.6095C25.4223 21.6468 26.9031 19.0686 25.9405 15.4762L23.3016 5.62771C22.339 2.03535 19.7675 0.5429 16.1748 1.50556Z" fill="#787D81" fill-opacity="0.4"/>
<g filter="url(#filter0_b_74_79)">
<path d="M24.7457 6.15158L14.54 6.15158C10.8209 6.15158 8.71379 8.25874 8.71379 11.9778V22.1737C8.71379 25.8928 10.8209 28 14.54 28H24.7457C28.4647 28 30.5622 25.8928 30.5622 22.1737V11.9778C30.5622 8.25874 28.4647 6.15158 24.7457 6.15158Z" fill="#787D81"/>
</g>
<path fill-rule="evenodd" clip-rule="evenodd" d="M19.6766 10.6185C19.1814 10.6185 18.7736 11.0263 18.7736 11.5312V22.6205C18.7736 23.1158 19.1814 23.5236 19.6766 23.5236C20.1816 23.5236 20.5894 23.1158 20.5894 22.6205V11.5312C20.5894 11.0263 20.1816 10.6185 19.6766 10.6185ZM14.5786 14.2019C14.0834 14.2019 13.6756 14.6098 13.6756 15.1147V22.6209C13.6756 23.1161 14.0834 23.5239 14.5786 23.5239C15.0836 23.5239 15.4914 23.1161 15.4914 22.6209V15.1147C15.4914 14.6098 15.0836 14.2019 14.5786 14.2019ZM23.794 19.0765C23.794 18.5715 24.2018 18.1637 24.7067 18.1637C25.202 18.1637 25.6098 18.5715 25.6098 19.0765V22.6208C25.6098 23.116 25.202 23.5238 24.697 23.5238C24.2018 23.5238 23.794 23.116 23.794 22.6208V19.0765Z" fill="white"/>
<defs>
<filter id="filter0_b_74_79" x="2.60698" y="0.0447755" width="34.062" height="34.062" filterUnits="userSpaceOnUse" color-interpolation-filters="sRGB">
<feFlood flood-opacity="0" result="BackgroundImageFix"/>
<feGaussianBlur in="BackgroundImageFix" stdDeviation="3.0534"/>
<feComposite in2="SourceAlpha" operator="in" result="effect1_backgroundBlur_74_79"/>
<feBlend mode="normal" in="SourceGraphic" in2="effect1_backgroundBlur_74_79" result="shape"/>
</filter>
</defs>
</svg>
