<svg width="36" height="28" viewBox="0 0 36 28" fill="none" xmlns="http://www.w3.org/2000/svg">
<path d="M19.3608 17.6C19.3608 22.7768 15.1652 26.9714 9.98935 26.9714C4.81351 26.9714 0.61792 22.7768 0.61792 17.6C0.61792 12.4251 4.81351 8.22858 9.98935 8.22858C15.1652 8.22858 19.3608 12.4251 19.3608 17.6Z" fill="#787D81" fill-opacity="0.4"/>
<g filter="url(#filter0_b_74_92)">
<path d="M34 14C34 21.1812 28.1799 27 21 27C13.8201 27 8 21.1812 8 14C8 6.8214 13.8201 1 21 1C28.1799 1 34 6.8214 34 14Z" fill="#787D81"/>
</g>
<path fill-rule="evenodd" clip-rule="evenodd" d="M21.1779 8.82C21.6805 8.82 22.0879 8.41258 22.0879 7.91C22.0879 7.40742 21.6805 7 21.1779 7C20.6753 7 20.2679 7.40742 20.2679 7.91C20.2679 8.41258 20.6753 8.82 21.1779 8.82ZM20.2679 11.9128C20.2679 11.4078 20.6758 11 21.171 11C21.6759 11 22.0838 11.4078 22.0838 11.9128V19.4189C22.0838 19.9141 21.6759 20.322 21.171 20.322C20.6758 20.322 20.2679 19.9141 20.2679 19.4189V11.9128Z" fill="white"/>
<defs>
<filter id="filter0_b_74_92" x="-0.228571" y="-7.22857" width="42.4571" height="42.4571" filterUnits="userSpaceOnUse" color-interpolation-filters="sRGB">
<feFlood flood-opacity="0" result="BackgroundImageFix"/>
<feGaussianBlur in="BackgroundImageFix" stdDeviation="4.11429"/>
<feComposite in2="SourceAlpha" operator="in" result="effect1_backgroundBlur_74_92"/>
<feBlend mode="normal" in="SourceGraphic" in2="effect1_backgroundBlur_74_92" result="shape"/>
</filter>
</defs>
</svg>
